<!DOCTYPE svg PUBLIC "-//W3C//DTD SVG 1.1//EN" "http://www.w3.org/Graphics/SVG/1.1/DTD/svg11.dtd">
<!-- Uploaded to: SVG Repo, www.svgrepo.com, Transformed by: SVG Repo Mixer Tools -->
<svg width="800px" height="800px" viewBox="0 0 64 64" fill="none" xmlns="http://www.w3.org/2000/svg" stroke="#ffffff">
<g id="SVGRepo_bgCarrier" stroke-width="0"/>
<g id="SVGRepo_tracerCarrier" stroke-linecap="round" stroke-linejoin="round"/>
<g id="SVGRepo_iconCarrier"> <path d="M52.25 24.371H50.33V42.151H52.25C53.8752 42.1491 55.4333 41.5027 56.5825 40.3535C57.7317 39.2043 58.3782 37.6462 58.38 36.021V30.511C58.3803 28.8842 57.7348 27.3238 56.5854 26.1726C55.4361 25.0213 53.8768 24.3734 52.25 24.371Z" fill="#ffffff"/> <path d="M50.33 40.151V42.151H48.33C47.7996 42.151 47.2909 41.9403 46.9158 41.5652C46.5407 41.1902 46.33 40.6814 46.33 40.151C46.3291 39.8881 46.3802 39.6276 46.4804 39.3846C46.5805 39.1415 46.7278 38.9207 46.9137 38.7348C47.0996 38.5489 47.3205 38.4016 47.5635 38.3014C47.8066 38.2012 48.0671 38.1501 48.33 38.151C48.8605 38.151 49.3691 38.3617 49.7442 38.7368C50.1193 39.1119 50.33 39.6206 50.33 40.151Z" fill="#ffffff"/> <path d="M46.33 40.151V26.371C46.33 25.8405 46.5407 25.3318 46.9158 24.9568C47.2909 24.5817 47.7996 24.371 48.33 24.371H50.33V40.151C50.33 39.6205 50.1193 39.1118 49.7442 38.7368C49.3691 38.3617 48.8605 38.151 48.33 38.151C48.0671 38.15 47.8066 38.2011 47.5635 38.3013C47.3205 38.4015 47.0996 38.5488 46.9137 38.7347C46.7278 38.9206 46.5805 39.1415 46.4804 39.3845C46.3802 39.6276 46.3291 39.8881 46.33 40.151Z" fill="#ffffff"/> <path d="M48.33 42.151H50.33V47.027C50.3333 47.1374 50.3266 47.2478 50.31 47.357C50.2515 47.8414 50.0179 48.2876 49.6532 48.6118C49.2885 48.936 48.8179 49.1156 48.33 49.117C47.7996 49.117 47.2908 48.9063 46.9158 48.5312C46.5407 48.1561 46.33 47.6474 46.33 47.117V40.147C46.3295 40.41 46.3808 40.6705 46.4811 40.9136C46.5814 41.1567 46.7286 41.3776 46.9144 41.5638C47.1001 41.7499 47.3208 41.8976 47.5637 41.9984C47.8066 42.0991 48.067 42.151 48.33 42.151Z" fill="#ffffff"/> <path d="M50.31 47.361C50.2285 48.9291 49.5482 50.4061 48.4094 51.4872C47.2706 52.5683 45.7602 53.171 44.19 53.171H43C43.289 52.5438 43.4391 51.8616 43.44 51.171C43.4391 50.4804 43.289 49.7982 43 49.171H44.19C44.7419 49.1702 45.2723 48.9568 45.6709 48.575C46.0695 48.1931 46.3056 47.6724 46.33 47.121C46.33 47.6514 46.5407 48.1601 46.9158 48.5352C47.2908 48.9103 47.7996 49.121 48.33 49.121C48.8179 49.1196 49.2885 48.94 49.6532 48.6158C50.0179 48.2916 50.2514 47.8454 50.31 47.361Z" fill="#ffffff"/> <path d="M43 49.171C42.6196 48.3457 42.0103 47.647 41.2446 47.1577C40.4788 46.6685 39.5887 46.4093 38.68 46.411H30.42C29.159 46.4126 27.9502 46.9149 27.0594 47.8075C26.1687 48.7002 25.6689 49.91 25.67 51.171C25.671 52.4305 26.1719 53.638 27.0624 54.5286C27.953 55.4192 29.1605 55.92 30.42 55.921H38.68C39.5868 55.9199 40.4746 55.6608 41.2396 55.1738C42.0046 54.6868 42.6152 53.9922 43 53.171C43.289 52.5438 43.4391 51.8616 43.44 51.171C43.4391 50.4804 43.289 49.7982 43 49.171Z" fill="#ffffff"/> <path d="M46.33 26.3709V13.8409C46.3284 13.311 46.1172 12.8032 45.7425 12.4285C45.3678 12.0537 44.86 11.8425 44.33 11.8409H20.44C19.9096 11.8409 19.4008 12.0517 19.0258 12.4267C18.6507 12.8018 18.44 13.3105 18.44 13.8409V26.3709C18.4384 25.841 18.2272 25.3332 17.8525 24.9585C17.4777 24.5838 16.9699 24.3725 16.44 24.3709H14.44V13.8409C14.4429 12.2505 15.076 10.7261 16.2006 9.60153C17.3252 8.47694 18.8496 7.84385 20.44 7.84094H44.33C45.9199 7.84569 47.4432 8.47936 48.5674 9.60355C49.6916 10.7277 50.3253 12.2511 50.33 13.8409V24.3709H48.33C47.7996 24.3709 47.2908 24.5817 46.9158 24.9567C46.5407 25.3318 46.33 25.8405 46.33 26.3709Z" fill="#ffffff"/> <path d="M18.44 40.151C18.4384 40.6809 18.2272 41.1887 17.8525 41.5634C17.4777 41.9382 16.9699 42.1494 16.44 42.151C15.9096 42.151 15.4008 41.9403 15.0258 41.5652C14.6507 41.1901 14.44 40.6814 14.44 40.151V24.371H16.44C16.9699 24.3726 17.4777 24.5838 17.8525 24.9585C18.2272 25.3333 18.4384 25.841 18.44 26.371V40.151Z" fill="#ffffff"/> <path d="M14.44 40.151V24.371H12.51C10.8832 24.3734 9.32393 25.0213 8.17456 26.1726C7.02519 27.3238 6.37974 28.8842 6.38 30.511V36.021C6.38186 37.6462 7.02829 39.2043 8.17749 40.3535C9.32669 41.5027 10.8848 42.1491 12.51 42.151H16.44C15.9096 42.151 15.4008 41.9403 15.0258 41.5652C14.6507 41.1901 14.44 40.6814 14.44 40.151Z" fill="#ffffff"/> </g>
</svg>