<!DOCTYPE svg PUBLIC "-//W3C//DTD SVG 1.1//EN" "http://www.w3.org/Graphics/SVG/1.1/DTD/svg11.dtd">
<!-- Uploaded to: SVG Repo, www.svgrepo.com, Transformed by: SVG Repo Mixer Tools -->
<svg fill="#ffffff" height="800px" width="800px" version="1.1" id="Icons" xmlns="http://www.w3.org/2000/svg" xmlns:xlink="http://www.w3.org/1999/xlink" viewBox="0 0 32 32" xml:space="preserve" stroke="#ffffff">
<g id="SVGRepo_bgCarrier" stroke-width="0"/>
<g id="SVGRepo_tracerCarrier" stroke-linecap="round" stroke-linejoin="round"/>
<g id="SVGRepo_iconCarrier"> <path d="M21,3H11c-5,0-9,4-9,9v17c0,0.4,0.2,0.7,0.6,0.9C2.7,30,2.9,30,3,30c0.2,0,0.5-0.1,0.7-0.2c3.5-3.1,8-4.8,12.6-4.8H21 c5,0,9-4,9-9v-4C30,7,26,3,21,3z M12.7,14.7c-0.1,0.1-0.2,0.2-0.3,0.2C12.3,15,12.1,15,12,15c-0.3,0-0.5-0.1-0.7-0.3 C11.1,14.5,11,14.3,11,14c0-0.1,0-0.3,0.1-0.4c0.1-0.1,0.1-0.2,0.2-0.3c0.3-0.3,0.7-0.4,1.1-0.2c0.1,0.1,0.2,0.1,0.3,0.2 c0.1,0.1,0.2,0.2,0.2,0.3C13,13.7,13,13.9,13,14C13,14.3,12.9,14.5,12.7,14.7z M16.7,14.7c-0.1,0-0.1,0.1-0.1,0.1 c-0.1,0-0.1,0.1-0.2,0.1c-0.1,0-0.1,0-0.2,0.1c-0.1,0-0.1,0-0.2,0c-0.3,0-0.5-0.1-0.7-0.3C15.1,14.5,15,14.3,15,14 c0-0.3,0.1-0.5,0.3-0.7c0.1-0.1,0.2-0.2,0.3-0.2c0.4-0.2,0.8-0.1,1.1,0.2c0.2,0.2,0.3,0.4,0.3,0.7C17,14.3,16.9,14.5,16.7,14.7z M20.9,14.4c-0.1,0.1-0.1,0.2-0.2,0.3c-0.1,0.1-0.2,0.2-0.3,0.2C20.3,15,20.1,15,20,15c-0.1,0-0.3,0-0.4-0.1 c-0.1-0.1-0.2-0.1-0.3-0.2c-0.1-0.1-0.2-0.2-0.2-0.3c0-0.1-0.1-0.3-0.1-0.4c0-0.1,0-0.3,0.1-0.4c0.1-0.1,0.1-0.2,0.2-0.3 c0.1-0.1,0.2-0.2,0.3-0.2c0.2-0.1,0.5-0.1,0.8,0c0.1,0.1,0.2,0.1,0.3,0.2c0.1,0.1,0.2,0.2,0.2,0.3c0,0.1,0.1,0.3,0.1,0.4 C21,14.1,21,14.3,20.9,14.4z"/> </g>
</svg>