<!DOCTYPE svg PUBLIC "-//W3C//DTD SVG 1.1//EN" "http://www.w3.org/Graphics/SVG/1.1/DTD/svg11.dtd">
<!-- Uploaded to: SVG Repo, www.svgrepo.com, Transformed by: SVG Repo Mixer Tools -->
<svg width="800px" height="800px" viewBox="0 0 64 64" fill="none" xmlns="http://www.w3.org/2000/svg" stroke="#ffffff">
<g id="SVGRepo_bgCarrier" stroke-width="0"/>
<g id="SVGRepo_tracerCarrier" stroke-linecap="round" stroke-linejoin="round"/>
<g id="SVGRepo_iconCarrier"> <path d="M54.42 38.321C54.2342 38.135 54.0137 37.9875 53.7709 37.8868C53.5281 37.7862 53.2678 37.7344 53.005 37.7344C52.7422 37.7344 52.4819 37.7862 52.2391 37.8868C51.9963 37.9875 51.7757 38.135 51.59 38.321L47.67 42.2409L46.42 40.981C46.2336 40.7957 46.0125 40.6489 45.7693 40.5491C45.5262 40.4493 45.2658 40.3985 45.0029 40.3994C44.7401 40.4003 44.48 40.453 44.2376 40.5545C43.9951 40.656 43.7751 40.8043 43.59 40.9909C43.4046 41.176 43.2575 41.3957 43.1571 41.6377C43.0568 41.8796 43.0051 42.139 43.0051 42.4009C43.0051 42.6629 43.0568 42.9222 43.1571 43.1642C43.2575 43.4061 43.4046 43.6259 43.59 43.8109L45.3 45.5209C45.6112 45.8321 45.9807 46.0788 46.3874 46.2469C46.7941 46.4151 47.2299 46.5014 47.67 46.5009C48.1101 46.5014 48.5459 46.4151 48.9526 46.2469C49.3592 46.0788 49.7288 45.8321 50.04 45.5209L54.42 41.1509C54.6059 40.9652 54.7535 40.7446 54.8541 40.5018C54.9548 40.259 55.0066 39.9988 55.0066 39.736C55.0066 39.4731 54.9548 39.2129 54.8541 38.9701C54.7535 38.7273 54.6059 38.5067 54.42 38.321Z" fill="#ffffff"/> <path d="M45.74 49.8409V49.8309C44.2256 49.1891 42.9336 48.1158 42.0249 46.7448C41.1162 45.3738 40.6311 43.7657 40.63 42.1209C40.6298 40.4533 41.1278 38.8237 42.06 37.4409V37.4309C42.3099 37.0433 42.4194 36.5818 42.3702 36.1232C42.3211 35.6647 42.1163 35.2368 41.79 34.9109C41.2754 34.4025 40.7311 33.925 40.16 33.481C38.8787 32.4758 37.4613 31.6576 35.95 31.0509C37.4097 29.8927 38.5888 28.4196 39.3992 26.7417C40.2096 25.0637 40.6303 23.2244 40.63 21.361C40.6247 18.0792 39.3187 14.9333 36.9981 12.6128C34.6776 10.2922 31.5318 8.98625 28.25 8.98096C24.9682 8.98625 21.8224 10.2922 19.5019 12.6128C17.1813 14.9333 15.8753 18.0792 15.87 21.361C15.8692 23.2254 16.2908 25.0659 17.1031 26.7441C17.9154 28.4224 19.0973 29.8948 20.56 31.0509C17.2589 32.3923 14.4324 34.6869 12.4412 37.6418C10.4499 40.5966 9.38416 44.0778 9.38 47.641V52.5009C9.38159 53.0309 9.5928 53.5387 9.96753 53.9134C10.3423 54.2882 10.8501 54.4994 11.38 54.5009H45.11C45.5014 54.5036 45.8846 54.3886 46.21 54.171C46.4865 53.9888 46.7135 53.7409 46.8706 53.4494C47.0277 53.158 47.1099 52.8321 47.11 52.5009V51.7409C47.1104 51.3204 46.9782 50.9105 46.7323 50.5694C46.4863 50.2283 46.1391 49.9734 45.74 49.8409Z" fill="#ffffff"/> </g>
</svg>