<?xml version="1.0" encoding="iso-8859-1"?>
<!-- Uploaded to: SVG Repo, www.svgrepo.com, Generator: SVG Repo Mixer Tools -->
<svg height="800px" width="800px" version="1.1" id="Layer_1" xmlns="http://www.w3.org/2000/svg" xmlns:xlink="http://www.w3.org/1999/xlink" 
	 viewBox="0 0 512 512" xml:space="preserve">
<circle style="fill:#FC6F58;" cx="256" cy="256" r="256"/>
<g>
	<path style="fill:#F1543F;" d="M360.75,489.65L123.739,252.64l-5.075,11.405v19.537l42.403,77.067l146.21,146.21
		C325.916,503.07,343.819,497.252,360.75,489.65z"/>
	<path style="fill:#F1543F;" d="M484.578,371.367l-233.75-233.75l-64.933,58.62L129.093,242.6l242.078,242.076
		C420.018,460.028,459.886,420.192,484.578,371.367z"/>
	<path style="fill:#F1543F;" d="M489.701,360.634c7.547-16.831,13.336-34.621,17.118-53.145L348.663,149.333l-52.395-23.274
		l-30.682-6.637l-12.326,4.77L489.701,360.634z"/>
</g>
<g>
	<path style="fill:#2B3B4E;" d="M256,397.36c-77.946,0-141.36-63.414-141.36-141.36c0-2.857,2.315-5.172,5.172-5.172
		s5.172,2.315,5.172,5.172c0,72.242,58.775,131.017,131.017,131.017c2.857,0,5.172,2.315,5.172,5.172S258.857,397.36,256,397.36z"/>
	<path style="fill:#2B3B4E;" d="M392.189,261.172c-2.857,0-5.172-2.315-5.172-5.172c0-72.242-58.775-131.017-131.017-131.017
		c-2.857,0-5.172-2.315-5.172-5.172s2.315-5.172,5.172-5.172c77.946,0,141.36,63.414,141.36,141.36
		C397.36,258.857,395.045,261.172,392.189,261.172z"/>
</g>
<circle style="fill:#E9EFF4;" cx="322.991" cy="322.991" r="80.396"/>
<path style="fill:#CFDBE6;" d="M322.998,242.6c-0.207,0-0.412,0.014-0.619,0.016v160.763c0.207,0.002,0.412,0.016,0.619,0.016
	c44.401,0,80.396-35.995,80.396-80.396S367.399,242.6,322.998,242.6z"/>
<path style="fill:#E9EFF4;" d="M371.091,367.175h-96.187v-16.303c0-11.588,7.415-21.875,18.408-25.54l17.663-5.887h24.047
	l17.663,5.887c10.993,3.665,18.408,13.952,18.408,25.54v16.303H371.091z"/>
<path style="fill:#D0D1D3;" d="M371.091,350.873c0-11.588-7.415-21.875-18.408-25.54l-17.663-5.887h-12.643v47.73h48.712v-16.303
	H371.091z"/>
<polygon style="fill:#FED8B2;" points="335.02,319.447 322.998,331.469 310.974,319.447 310.974,307.422 335.02,307.422 "/>
<polygon style="fill:#EFC095;" points="322.377,307.422 322.377,330.85 322.998,331.469 335.02,319.447 335.02,307.422 "/>
<path style="fill:#F4E3C3;" d="M298.949,283.376c0-13.281,10.766-24.047,24.047-24.047c13.281,0,24.047,10.766,24.047,24.047
	c0,13.281-10.766,36.071-24.047,36.071C309.717,319.447,298.949,296.657,298.949,283.376z"/>
<path style="fill:#FED8B2;" d="M322.998,259.329c-0.209,0-0.412,0.026-0.619,0.031v60.052c0.207,0.01,0.412,0.033,0.619,0.033
	c13.281,0,24.047-22.79,24.047-36.071C347.045,270.095,336.277,259.329,322.998,259.329z"/>
<path style="fill:#59595B;" d="M347.045,283.376c0-13.281-10.766-24.047-24.047-24.047s-24.047,10.766-24.047,24.047
	c0,5.299,1.719,12.112,4.624,18.387c-0.681-3.612-0.498-7.306-0.141-10.092c15.263-1.198,29.992-8.339,29.992-8.339
	s1.864,3.427,8.857,6.475c0.495,2.844,0.984,7.47,0.134,11.969C345.324,295.496,347.045,288.678,347.045,283.376z"/>
<path style="fill:#272525;" d="M347.045,283.376c0-13.281-10.766-24.047-24.047-24.047c-0.209,0-0.412,0.026-0.619,0.031v28.286
	c6.565-2.146,11.047-4.313,11.047-4.313s1.864,3.427,8.857,6.475c0.495,2.844,0.984,7.47,0.134,11.969
	C345.324,295.496,347.045,288.678,347.045,283.376z"/>
<polygon style="fill:#F4BA6C;" points="317.942,366.756 321.312,335.472 324.682,335.472 328.052,366.756 "/>
<polygon style="fill:#F9B54C;" points="324.682,335.472 322.377,335.472 322.377,366.756 328.052,366.756 "/>
<path style="fill:#386895;" d="M305.473,321.279l-12.162,4.055c-10.993,3.665-18.408,13.952-18.408,25.54v16.303h47.475v-2.026
	L305.473,321.279z"/>
<path style="fill:#273B7A;" d="M371.091,350.873c0-11.588-7.415-21.875-18.408-25.54l-12.162-4.055l-17.523,45.477l-0.619-1.605
	v2.026h48.712L371.091,350.873L371.091,350.873z"/>
<polygon style="fill:#121149;" points="340.521,321.279 343.852,335.472 337.532,338.632 343.852,345.9 322.996,366.756 "/>
<polygon style="fill:#273B7A;" points="305.473,321.279 302.14,335.472 308.46,338.632 302.14,345.9 322.996,366.756 "/>
<polygon style="fill:#F9B54C;" points="329.633,331.523 325.208,341.951 320.784,341.951 316.361,331.523 "/>
<polygon style="fill:#F4A200;" points="329.633,331.523 322.377,331.523 322.377,341.949 325.208,341.949 "/>
<polygon style="fill:#E9EFF4;" points="333.424,335.472 340.521,321.279 335.02,319.447 322.998,331.469 "/>
<polygon style="fill:#FFFFFF;" points="312.57,335.472 305.473,321.279 310.974,319.447 322.996,331.469 "/>
<circle style="fill:#E9EFF4;" cx="189.009" cy="189.009" r="80.396"/>
<path style="fill:#CFDBE6;" d="M189.002,108.606c-0.207,0-0.412,0.014-0.619,0.016v160.763c0.207,0.002,0.412,0.016,0.619,0.016
	c44.403,0,80.398-35.995,80.398-80.398S233.405,108.606,189.002,108.606z"/>
<path style="fill:#E9EFF4;" d="M237.096,233.181h-96.187v-16.303c0-11.588,7.415-21.875,18.408-25.54l17.663-5.887h24.047
	l17.663,5.887c10.993,3.665,18.408,13.952,18.408,25.54v16.303H237.096z"/>
<path style="fill:#D0D1D3;" d="M237.096,216.879c0-11.588-7.415-21.875-18.408-25.54l-17.663-5.887h-12.643v47.73h48.712v-16.303
	H237.096z"/>
<polygon style="fill:#FED8B2;" points="201.026,185.451 189.002,197.475 176.98,185.451 176.98,173.428 201.026,173.428 "/>
<polygon style="fill:#EFC095;" points="188.383,173.428 188.383,196.856 189.002,197.475 201.026,185.451 201.026,173.428 "/>
<path style="fill:#F4E3C3;" d="M164.955,149.382c0-13.281,10.766-24.047,24.047-24.047s24.047,10.766,24.047,24.047
	s-10.766,36.071-24.047,36.071S164.955,162.663,164.955,149.382z"/>
<path style="fill:#FED8B2;" d="M189.002,125.335c-0.209,0-0.412,0.026-0.619,0.031v60.052c0.207,0.01,0.412,0.033,0.619,0.033
	c13.281,0,24.047-22.79,24.047-36.071S202.283,125.335,189.002,125.335z"/>
<path style="fill:#59595B;" d="M213.049,149.382c0-13.281-10.766-24.047-24.047-24.047s-24.047,10.766-24.047,24.047
	c0,5.299,1.719,12.112,4.624,18.387c-0.681-3.612-0.498-7.306-0.141-10.092c15.263-1.198,29.993-8.339,29.993-8.339
	s1.864,3.427,8.857,6.475c0.495,2.844,0.984,7.47,0.134,11.969C211.328,161.502,213.049,154.684,213.049,149.382z"/>
<path style="fill:#272525;" d="M213.049,149.382c0-13.281-10.766-24.047-24.047-24.047c-0.209,0-0.412,0.026-0.619,0.031v28.286
	c6.565-2.146,11.047-4.313,11.047-4.313s1.864,3.427,8.857,6.475c0.495,2.844,0.984,7.47,0.134,11.969
	C211.328,161.502,213.049,154.684,213.049,149.382z"/>
<polygon style="fill:#F4BA6C;" points="183.946,232.762 187.318,201.478 190.688,201.478 194.058,232.762 "/>
<polygon style="fill:#F9B54C;" points="190.688,201.478 188.383,201.478 188.383,232.762 194.058,232.762 "/>
<path style="fill:#386895;" d="M171.479,187.285l-12.162,4.055c-10.993,3.665-18.408,13.952-18.408,25.54v16.303h47.475v-2.026
	L171.479,187.285z"/>
<path style="fill:#273B7A;" d="M237.096,216.879c0-11.588-7.415-21.875-18.408-25.54l-12.162-4.055l-17.524,45.477l-0.619-1.605
	v2.026h48.712V216.879z"/>
<polygon style="fill:#121149;" points="206.526,187.285 209.858,201.478 203.538,204.638 209.858,211.906 189.002,232.762 "/>
<polygon style="fill:#273B7A;" points="171.479,187.285 168.146,201.478 174.466,204.638 168.146,211.906 189.002,232.762 "/>
<polygon style="fill:#F9B54C;" points="195.637,197.527 191.214,207.955 186.79,207.955 182.367,197.527 "/>
<polygon style="fill:#F4A200;" points="195.637,197.527 188.383,197.527 188.383,207.955 191.214,207.955 "/>
<polygon style="fill:#E9EFF4;" points="199.43,201.478 206.526,187.285 201.026,185.451 189.002,197.475 "/>
<polygon style="fill:#FFFFFF;" points="178.574,201.478 171.479,187.285 176.98,185.451 189.002,197.475 "/>
</svg>